<?xml version="1.0" encoding="utf-8"?>
<!-- Generator: Adobe Illustrator 25.2.0, SVG Export Plug-In . SVG Version: 6.00 Build 0)  -->
<svg version="1.1" id="Layer_1" xmlns="http://www.w3.org/2000/svg" xmlns:xlink="http://www.w3.org/1999/xlink" x="0px" y="0px"
	 viewBox="0 0 32 32" style="enable-background:new 0 0 32 32;" xml:space="preserve">
<style type="text/css">
	.st0{display:none;fill:#FEFEFE;stroke:#000000;stroke-width:0.32;stroke-miterlimit:10;}
	.st1{stroke:#000000;stroke-width:0.32;stroke-miterlimit:10;}
	.st2{display:none;fill:#FEFEFE;stroke:#000000;stroke-width:0.4114;stroke-miterlimit:10;}
	.st3{stroke:#000000;stroke-width:0.4114;stroke-miterlimit:10;}
	.st4{display:none;fill:#FEFEFE;stroke:#000000;stroke-width:0.7314;stroke-miterlimit:10;}
	.st5{stroke:#000000;stroke-width:0.7314;stroke-miterlimit:10;}
</style>
<g id="Layer_2_2_">
	<g>
		<g>
			<path class="st0" d="M6.8,1.1c2.4,3.9,4.8,7.7,7.2,11.6c0.3,0.5,0.4,0.8,0,1.3c-1.1,1.7-2.1,3.4-3.2,5.1
				c-0.5-0.3-0.8,0.1-1.1,0.6C9,20.9,8.3,22,7.6,23.1c-0.2,0.4-0.5,0.9-0.8,0.7c-0.3-0.2-0.3-0.9-0.3-1.4c0-6,0-12,0-18
				c0-0.7,0-1.4,0-2.1C6.5,1.9,6.5,1.4,6.8,1.1z"/>
			<path class="st0" d="M2.1,19.1C1,17.3,0,15.6-1.1,13.9c-0.4-0.6-0.3-0.8,0-1.3C1.3,8.8,3.7,4.9,6,1.1c0.4,0.4,0.3,1,0.3,1.5
				c0,6.6,0,13.1,0,19.7c0,0.2,0,0.4,0,0.6c0,0.4,0,0.8-0.3,1c-0.2,0.2-0.4-0.2-0.6-0.4c-0.8-1.2-1.5-2.5-2.3-3.7
				C2.9,19.2,2.6,18.8,2.1,19.1z"/>
			<path class="st1" d="M2.1,19.1c0.2-1.1,0.5-0.8,0.8-0.2c0.8,1.3,1.6,2.6,2.4,3.9c0.2,0.3,0.4,0.6,0.6,1C6,16.1,6,8.6,6,1.1
				c0.2-0.6,0.5-0.6,0.7,0c0,7.5,0.1,15,0.1,22.7c1-1.6,2-3.3,3-4.9c0.4-0.6,0.7-0.8,0.8,0.3c-1.3,2.1-2.7,4.3-4,6.5
				c-0.3,0.5-0.4,0.5-0.7,0C4.8,23.4,3.4,21.2,2.1,19.1z"/>
		</g>
	</g>
</g>
<g id="Layer_3">
	<g>
		<g>
			<path class="st2" d="M15.6,11.6c5.6,5,11.3,10.1,16.9,15.1c0.5,0.5,0.5,0.7,0.1,1.1c-4.4,4.8-8.7,9.6-13,14.4
				c-0.4,0.5-0.6,0.5-1.1,0c-5.4-4.9-10.8-9.7-16.3-14.5c-0.5-0.5-0.5-0.7-0.1-1.1C6.6,21.6,11.1,16.6,15.6,11.6z"/>
			<path class="st3" d="M3.2,27.5c-0.1-0.2-0.1-0.3-0.2-0.4c0-0.2,0.1-0.3,0.3-0.4c0.3,0,0.5,0,0.8,0c8.8,0,17.5,0.1,26.3,0.1
				c0.2,0,0.4,0,0.7,0c0.3,0,0.5,0.2,0.5,0.5c0,0.3-0.2,0.4-0.4,0.4c-0.2,0-0.4,0-0.7,0c-8.8,0-17.5-0.1-26.3-0.1
				C3.9,27.5,3.6,27.5,3.2,27.5z"/>
		</g>
	</g>
</g>
<g id="Layer_4">
	<g>
		<g>
			<path class="st4" d="M0,28.2c1.1-0.1,2.3-0.2,3.4-0.4c0.1,0,0.1,0,0.1,0.1c0.1,1,0.3,2,0.4,3.1c0,0.1,0,0.1-0.1,0.1
				c-1.1,0.1-2.2,0.2-3.3,0.4c-0.1,0-0.1,0-0.1-0.1C0.3,30.4,0.1,29.3,0,28.2z"/>
			<path class="st5" d="M0.6,31.4C0.6,31.4,0.6,31.4,0.6,31.4c-0.1,0-0.1-0.1-0.1-0.1c0,0,0-0.1,0.1-0.1c0.8-1,1.7-2,2.5-3.1
				c0,0,0-0.1,0.1-0.1c0,0,0.1,0,0.1,0c0,0,0,0.1,0,0.1c0,0,0,0.1-0.1,0.1c-0.8,1-1.7,2-2.5,3.1C0.7,31.3,0.7,31.4,0.6,31.4z"/>
		</g>
	</g>
	<g>
		<g>
			<path class="st4" d="M3.4,28.2c1.1-0.1,2.3-0.2,3.4-0.4c0.1,0,0.1,0,0.1,0.1C7,29,7.2,30,7.3,31c0,0.1,0,0.1-0.1,0.1
				c-1.1,0.1-2.2,0.2-3.3,0.4c-0.1,0-0.1,0-0.1-0.1C3.7,30.4,3.5,29.3,3.4,28.2z"/>
			<path class="st5" d="M4,31.4C4,31.4,4,31.4,4,31.4c-0.1,0-0.1-0.1-0.1-0.1c0,0,0-0.1,0.1-0.1c0.8-1,1.7-2,2.5-3.1
				c0,0,0-0.1,0.1-0.1c0,0,0.1,0,0.1,0c0,0,0,0.1,0,0.1c0,0,0,0.1-0.1,0.1c-0.8,1-1.7,2-2.5,3.1C4.1,31.3,4.1,31.4,4,31.4z"/>
		</g>
	</g>
	<g>
		<g>
			<path class="st4" d="M6.7,28.3c1.1-0.1,2.3-0.2,3.4-0.4c0.1,0,0.1,0,0.1,0.1c0.1,1,0.3,2,0.4,3.1c0,0.1,0,0.1-0.1,0.1
				c-1.1,0.1-2.2,0.2-3.3,0.4c-0.1,0-0.1,0-0.1-0.1C7,30.4,6.9,29.3,6.7,28.3z"/>
			<path class="st5" d="M7.4,31.4C7.4,31.4,7.4,31.4,7.4,31.4c-0.1,0-0.1-0.1-0.1-0.1c0,0,0-0.1,0.1-0.1c0.8-1,1.7-2,2.5-3.1
				c0,0,0-0.1,0.1-0.1c0,0,0.1,0,0.1,0c0,0,0,0.1,0,0.1c0,0,0,0.1-0.1,0.1c-0.8,1-1.7,2-2.5,3.1C7.5,31.3,7.4,31.4,7.4,31.4z"/>
		</g>
	</g>
	<g>
		<g>
			<path class="st4" d="M27.8,28.3c1.1-0.1,2.3-0.2,3.4-0.4c0.1,0,0.1,0,0.1,0.1c0.1,1,0.3,2,0.4,3.1c0,0.1,0,0.1-0.1,0.1
				c-1.1,0.1-2.2,0.2-3.3,0.4c-0.1,0-0.1,0-0.1-0.1C28.1,30.4,27.9,29.3,27.8,28.3z"/>
			<path class="st5" d="M28.4,31.4C28.4,31.4,28.4,31.4,28.4,31.4c-0.1,0-0.1-0.1-0.1-0.1c0,0,0-0.1,0.1-0.1c0.8-1,1.7-2,2.5-3.1
				c0,0,0-0.1,0.1-0.1c0,0,0.1,0,0.1,0c0,0,0,0.1,0,0.1c0,0,0,0.1-0.1,0.1c-0.8,1-1.7,2-2.5,3.1C28.5,31.3,28.5,31.4,28.4,31.4z"/>
		</g>
	</g>
	<g>
		<g>
			<path class="st4" d="M20.9,28.2c1.1-0.1,2.3-0.2,3.4-0.4c0.1,0,0.1,0,0.1,0.1c0.1,1,0.3,2,0.4,3.1c0,0.1,0,0.1-0.1,0.1
				c-1.1,0.1-2.2,0.2-3.3,0.4c-0.1,0-0.1,0-0.1-0.1C21.2,30.4,21,29.3,20.9,28.2z"/>
			<path class="st5" d="M21.5,31.4C21.5,31.4,21.5,31.4,21.5,31.4c-0.1,0-0.1-0.1-0.1-0.1c0,0,0-0.1,0.1-0.1c0.8-1,1.7-2,2.5-3.1
				c0,0,0-0.1,0.1-0.1c0,0,0.1,0,0.1,0c0,0,0,0.1,0,0.1c0,0,0,0.1-0.1,0.1c-0.8,1-1.7,2-2.5,3.1C21.6,31.3,21.6,31.4,21.5,31.4z"/>
		</g>
	</g>
	<g>
		<g>
			<path class="st4" d="M10.4,28.3c1.1-0.1,2.3-0.2,3.4-0.4c0.1,0,0.1,0,0.1,0.1c0.1,1,0.3,2,0.4,3.1c0,0.1,0,0.1-0.1,0.1
				c-1.1,0.1-2.2,0.2-3.3,0.4c-0.1,0-0.1,0-0.1-0.1C10.7,30.4,10.6,29.3,10.4,28.3z"/>
			<path class="st5" d="M11.1,31.4C11.1,31.4,11,31.4,11.1,31.4c-0.1,0-0.1-0.1-0.1-0.1c0,0,0-0.1,0.1-0.1c0.8-1,1.7-2,2.5-3.1
				c0,0,0-0.1,0.1-0.1c0,0,0.1,0,0.1,0c0,0,0,0.1,0,0.1c0,0,0,0.1-0.1,0.1c-0.8,1-1.7,2-2.5,3.1C11.2,31.3,11.1,31.4,11.1,31.4z"/>
		</g>
	</g>
	<g>
		<g>
			<path class="st4" d="M13.8,28.4c1.1-0.1,2.3-0.2,3.4-0.4c0.1,0,0.1,0,0.1,0.1c0.1,1,0.3,2,0.4,3.1c0,0.1,0,0.1-0.1,0.1
				c-1.1,0.1-2.2,0.2-3.3,0.4c-0.1,0-0.1,0-0.1-0.1C14.1,30.5,14,29.5,13.8,28.4z"/>
			<path class="st5" d="M14.5,31.6C14.5,31.6,14.4,31.5,14.5,31.6c-0.1,0-0.1-0.1-0.1-0.1c0,0,0-0.1,0.1-0.1c0.8-1,1.7-2,2.5-3.1
				c0,0,0-0.1,0.1-0.1c0,0,0.1,0,0.1,0c0,0,0,0.1,0,0.1c0,0,0,0.1-0.1,0.1c-0.8,1-1.7,2-2.5,3.1C14.6,31.5,14.5,31.5,14.5,31.6z"/>
		</g>
	</g>
	<g>
		<g>
			<path class="st4" d="M17.2,28.4c1.1-0.1,2.3-0.2,3.4-0.4c0.1,0,0.1,0,0.1,0.1c0.1,1,0.3,2,0.4,3.1c0,0.1,0,0.1-0.1,0.1
				c-1.1,0.1-2.2,0.2-3.3,0.4c-0.1,0-0.1,0-0.1-0.1C17.5,30.5,17.4,29.5,17.2,28.4z"/>
			<path class="st5" d="M17.9,31.6C17.8,31.6,17.8,31.5,17.9,31.6c-0.1,0-0.1-0.1-0.1-0.1c0,0,0-0.1,0.1-0.1c0.8-1,1.7-2,2.5-3.1
				c0,0,0-0.1,0.1-0.1c0,0,0.1,0,0.1,0c0,0,0,0.1,0,0.1c0,0,0,0.1-0.1,0.1c-0.8,1-1.7,2-2.5,3.1C17.9,31.5,17.9,31.5,17.9,31.6z"/>
		</g>
	</g>
	<g>
		<g>
			<path class="st4" d="M24.3,28.4c1.1-0.1,2.3-0.2,3.4-0.4c0.1,0,0.1,0,0.1,0.1c0.1,1,0.3,2,0.4,3.1c0,0.1,0,0.1-0.1,0.1
				c-1.1,0.1-2.2,0.2-3.3,0.4c-0.1,0-0.1,0-0.1-0.1C24.5,30.5,24.4,29.5,24.3,28.4z"/>
			<path class="st5" d="M24.9,31.6C24.9,31.6,24.9,31.6,24.9,31.6c-0.1,0-0.1-0.1-0.1-0.1c0,0,0-0.1,0.1-0.1c0.8-1,1.7-2,2.5-3.1
				c0,0,0-0.1,0.1-0.1c0,0,0.1,0,0.1,0c0,0,0,0.1,0,0.1c0,0,0,0.1-0.1,0.1c-0.8,1-1.7,2-2.5,3.1C25,31.5,24.9,31.5,24.9,31.6z"/>
		</g>
	</g>
</g>
<g id="Layer_2_3_">
	<g>
		<g>
			<path class="st0" d="M16.4,1c2.4,3.9,4.8,7.7,7.2,11.6c0.3,0.5,0.4,0.8,0,1.3c-1.1,1.7-2.1,3.4-3.2,5.1c-0.5-0.3-0.8,0.1-1.1,0.6
				c-0.7,1.1-1.4,2.3-2.1,3.4c-0.2,0.4-0.5,0.9-0.8,0.7c-0.3-0.2-0.3-0.9-0.3-1.4c0-6,0-12,0-18c0-0.7,0-1.4,0-2.1
				C16.2,1.8,16.1,1.3,16.4,1z"/>
			<path class="st0" d="M11.8,19c-1.1-1.7-2.1-3.5-3.2-5.2c-0.4-0.6-0.3-0.8,0-1.3c2.4-3.8,4.8-7.7,7.2-11.5C16.1,1.4,16,2,16,2.5
				c0,6.6,0,13.1,0,19.7c0,0.2,0,0.4,0,0.6c0,0.4,0,0.8-0.3,1c-0.2,0.2-0.4-0.2-0.6-0.4c-0.8-1.2-1.5-2.5-2.3-3.7
				C12.5,19.2,12.2,18.7,11.8,19z"/>
			<path class="st1" d="M11.8,19c0.2-1.1,0.5-0.8,0.8-0.2c0.8,1.3,1.6,2.6,2.4,3.9c0.2,0.3,0.4,0.6,0.6,1c0-7.7,0-15.2,0-22.7
				c0.2-0.6,0.5-0.6,0.7,0c0,7.5,0.1,15,0.1,22.7c1-1.6,2-3.3,3-4.9c0.4-0.6,0.7-0.8,0.8,0.3c-1.3,2.1-2.7,4.3-4,6.5
				c-0.3,0.5-0.4,0.5-0.7,0C14.4,23.3,13.1,21.2,11.8,19z"/>
		</g>
	</g>
</g>
<g id="Layer_2_4_">
	<g>
		<g>
			<path class="st0" d="M25.9,1.1c2.4,3.9,4.8,7.7,7.2,11.6c0.3,0.5,0.4,0.8,0,1.3c-1.1,1.7-2.1,3.4-3.2,5.1
				c-0.5-0.3-0.8,0.1-1.1,0.6c-0.7,1.1-1.4,2.3-2.1,3.4c-0.2,0.4-0.5,0.9-0.8,0.7c-0.3-0.2-0.3-0.9-0.3-1.4c0-6,0-12,0-18
				c0-0.7,0-1.4,0-2.1C25.7,1.9,25.6,1.4,25.9,1.1z"/>
			<path class="st0" d="M21.2,19.1c-1.1-1.7-2.1-3.5-3.2-5.2c-0.4-0.6-0.3-0.8,0-1.3c2.4-3.8,4.8-7.7,7.2-11.5
				c0.4,0.4,0.3,1,0.3,1.5c0,6.6,0,13.1,0,19.7c0,0.2,0,0.4,0,0.6c0,0.4,0,0.8-0.3,1c-0.2,0.2-0.4-0.2-0.6-0.4
				c-0.8-1.2-1.5-2.5-2.3-3.7C22,19.2,21.7,18.8,21.2,19.1z"/>
			<path class="st1" d="M21.2,19.1c0.2-1.1,0.5-0.8,0.8-0.2c0.8,1.3,1.6,2.6,2.4,3.9c0.2,0.3,0.4,0.6,0.6,1c0-7.7,0-15.2,0-22.7
				c0.2-0.6,0.5-0.6,0.7,0c0,7.5,0.1,15,0.1,22.7c1-1.6,2-3.3,3-4.9c0.4-0.6,0.7-0.8,0.8,0.3c-1.3,2.1-2.7,4.3-4,6.5
				c-0.3,0.5-0.4,0.5-0.7,0C23.9,23.4,22.6,21.2,21.2,19.1z"/>
		</g>
	</g>
</g>
<g id="Layer_3_1_">
	<g>
		<g>
			<path class="st2" d="M14.5-20.4c4,6.9,8,13.8,12,20.7c0.4,0.6,0.4,0.9,0.1,1.5c-2.9,6.7-5.8,13.4-8.7,20.1
				c-0.3,0.6-0.4,0.6-0.8,0C13.3,15.3,9.4,8.6,5.6,2C5.2,1.4,5.2,1.1,5.5,0.5C8.5-6.4,11.5-13.4,14.5-20.4z"/>
			<path class="st3" d="M6.3,1.8c0-0.2-0.1-0.4-0.1-0.6c0-0.3,0.1-0.5,0.2-0.5c0.2,0,0.4,0,0.5,0C13,0.6,19,0.5,25.1,0.5
				c0.2,0,0.3,0,0.5,0c0.2,0,0.4,0.2,0.4,0.7c0,0.4-0.1,0.5-0.3,0.5c-0.2,0-0.3,0-0.5,0C19.1,1.7,13,1.8,7,1.9
				C6.8,1.9,6.5,1.8,6.3,1.8z"/>
		</g>
	</g>
</g>
</svg>
