<?xml version="1.0" encoding="utf-8"?>
<!-- Generator: Adobe Illustrator 25.2.0, SVG Export Plug-In . SVG Version: 6.00 Build 0)  -->
<svg version="1.1" id="Layer_1" xmlns="http://www.w3.org/2000/svg" xmlns:xlink="http://www.w3.org/1999/xlink" x="0px" y="0px"
	 viewBox="0 0 32 32" style="enable-background:new 0 0 32 32;" xml:space="preserve">
<style type="text/css">
	.st0{display:none;fill:#FEFEFE;}
	.st1{display:none;fill:#FDFDFD;}
</style>
<path class="st0" d="M28.844,31.819c-8.957,0-17.914-0.022-26.871,0.023c-1.358,0.007-2.035,0.025-2.01-1.717
	c0.134-9.707,0.134-19.418,0-29.125c-0.024-1.743,0.653-1.724,2.01-1.717c8.957,0.045,17.914,0.023,26.871,0.023
	c0.863,0.906,0.745,2.032,0.747,3.119c0.015,8.759,0.015,17.518,0,26.277C29.589,29.787,29.707,30.914,28.844,31.819z"/>
<path class="st1" d="M28.844,31.819c0-10.838,0-21.676,0-32.513c1.779,0,4.252-0.661,5.141,0.186s0.195,3.201,0.195,4.894
	c0,8.467-0.067,16.935,0.055,25.4c0.025,1.744-0.35,2.343-2.194,2.062C31,31.689,29.911,31.819,28.844,31.819z"/>
<path class="st0" d="M94.552,49.68c0,14.827-0.065,29.655,0.065,44.481c0.022,2.475-0.545,3.039-2.949,3.03
	c-28.843-0.099-57.686-0.099-86.529,0c-2.404,0.008-2.955-0.558-2.947-3.03c0.096-29.654,0.096-59.309,0-88.963
	c-0.008-2.472,0.543-3.038,2.947-3.03c28.843,0.099,57.686,0.099,86.529,0c2.404-0.008,2.971,0.555,2.949,3.03
	C94.486,20.026,94.552,34.853,94.552,49.68z"/>
<path d="M15.97,0.207c3.501,0,7.003,0.044,10.503-0.027c1.034-0.021,1.458,0.267,1.354,1.546c-0.094,1.159-0.076,2.341-0.005,3.505
	c0.081,1.322,0.006,2.086-1.5,2.073c-1.447-0.013-1.703-0.657-1.514-2.033c0.167-1.217-0.214-1.689-1.302-1.573
	c-2.031,0.216-4.69-0.98-5.921,0.479c-0.979,1.162-0.274,4.289-0.28,6.543c-0.013,5.263,0.037,10.526-0.032,15.788
	c-0.018,1.392,0.254,2.045,1.512,1.778c1.187-0.252,1.587,0.26,1.566,1.732c-0.02,1.388-0.272,1.889-1.534,1.811
	c-2.12-0.132-4.255-0.14-6.373,0.001c-1.355,0.09-1.17-0.832-1.145-1.772c0.024-0.882-0.284-2.104,1.105-1.765
	c1.829,0.447,1.942-0.692,1.925-2.405c-0.071-6.797-0.062-13.596-0.002-20.393c0.012-1.387-0.242-1.965-1.513-1.809
	C11.7,3.825,10.562,3.777,9.44,3.702c-1.632-0.109-3.108-0.23-2.68,2.632C6.974,7.761,5.847,7.191,5.312,7.18
	C4.776,7.168,3.805,7.824,3.796,6.368C3.785,4.614,3.818,2.859,3.785,1.105c-0.024-1.288,0.776-0.88,1.307-0.884
	C8.718,0.194,12.344,0.207,15.97,0.207z"/>
</svg>
