<?xml version="1.0" encoding="utf-8"?>
<!-- Generator: Adobe Illustrator 25.2.0, SVG Export Plug-In . SVG Version: 6.00 Build 0)  -->
<svg version="1.1" id="Layer_1" xmlns="http://www.w3.org/2000/svg" xmlns:xlink="http://www.w3.org/1999/xlink" x="0px" y="0px"
	 viewBox="0 0 32 32" style="enable-background:new 0 0 32 32;" xml:space="preserve">
<style type="text/css">
	.st0{display:none;fill:#FEFEFE;stroke:#000000;stroke-width:0.2286;stroke-miterlimit:10;}
	.st1{stroke:#000000;stroke-width:0.2286;stroke-miterlimit:10;}
	.st2{display:none;fill:#FEFEFE;stroke:#000000;stroke-width:0.4114;stroke-miterlimit:10;}
	.st3{stroke:#000000;stroke-width:0.4114;stroke-miterlimit:10;}
	.st4{display:none;fill:#FEFEFE;stroke:#000000;stroke-width:0.7314;stroke-miterlimit:10;}
	.st5{stroke:#000000;stroke-width:0.7314;stroke-miterlimit:10;}
</style>
<g id="Layer_2_2_">
	<g>
		<g>
			<path class="st0" d="M17.3,0.5c3.1,4,6.1,8,9.2,12c0.4,0.5,0.5,0.8,0,1.4c-1.4,1.7-2.7,3.5-4.1,5.3c-0.6-0.3-1,0.2-1.4,0.6
				c-0.9,1.2-1.8,2.4-2.7,3.5c-0.3,0.4-0.6,0.9-1,0.7c-0.4-0.2-0.3-0.9-0.3-1.4c0-6.2,0-12.4-0.1-18.6c0-0.7,0-1.5,0-2.2
				C17,1.3,16.9,0.8,17.3,0.5z"/>
			<path class="st0" d="M11.3,19.1c-1.4-1.8-2.7-3.6-4.1-5.4c-0.5-0.6-0.4-0.8,0-1.4c3.1-4,6.1-7.9,9.1-11.9c0.5,0.4,0.4,1,0.4,1.6
				c0,6.8,0,13.6,0.1,20.4c0,0.2,0,0.4,0,0.6c0,0.4,0,0.8-0.3,1c-0.3,0.2-0.6-0.2-0.8-0.4c-1-1.2-2-2.6-3-3.8
				C12.3,19.3,11.9,18.8,11.3,19.1z"/>
			<path class="st1" d="M11.3,19.1c0.2-1.1,0.6-0.9,1.1-0.3c1,1.4,2.1,2.7,3.1,4.1c0.3,0.3,0.5,0.7,0.8,1.1c0-7.9,0-15.7,0-23.5
				c0.3-0.6,0.6-0.6,1,0C17.3,8.2,17.4,16,17.4,24c1.3-1.7,2.6-3.4,3.9-5.1c0.5-0.6,0.9-0.9,1.1,0.3c-1.7,2.2-3.4,4.4-5.1,6.7
				c-0.4,0.5-0.5,0.5-0.9,0C14.7,23.6,13,21.3,11.3,19.1z"/>
		</g>
	</g>
</g>
<g id="Layer_3">
	<g>
		<g>
			<path class="st2" d="M15.6,8.7c5.7,6,11.3,12,17,17.9c0.5,0.6,0.5,0.8,0.1,1.3c-4.4,5.7-8.8,11.4-13.1,17.1
				c-0.4,0.6-0.6,0.5-1.1,0C13,39.3,7.6,33.5,2.1,27.8C1.6,27.2,1.5,27,2,26.5C6.5,20.6,11,14.6,15.6,8.7z"/>
			<path class="st3" d="M3.1,27.6C3.1,27.4,3,27.2,3,27.1c0-0.2,0.1-0.4,0.3-0.4c0.3,0,0.5,0,0.8,0c8.8,0.1,17.6,0.1,26.5,0.2
				c0.2,0,0.4,0,0.7,0c0.3,0,0.5,0.2,0.5,0.6c0,0.3-0.2,0.4-0.4,0.4c-0.2,0-0.4,0-0.7,0c-8.8-0.1-17.6-0.1-26.5-0.2
				C3.8,27.6,3.5,27.6,3.1,27.6z"/>
		</g>
	</g>
</g>
<g id="Layer_4">
	<g>
		<g>
			<path class="st4" d="M0,27.4c1.1-0.1,2.3-0.3,3.4-0.4c0.1,0,0.1,0,0.1,0.1c0.1,1.2,0.3,2.4,0.4,3.6c0,0.1,0,0.1-0.1,0.2
				c-1.1,0.1-2.2,0.3-3.3,0.4c-0.1,0-0.1,0-0.1-0.1C0.3,29.9,0.2,28.7,0,27.4z"/>
			<path class="st5" d="M0.7,31.1C0.6,31.1,0.6,31.1,0.7,31.1C0.6,31.1,0.6,31,0.6,31c0,0,0-0.1,0.1-0.1c0.9-1.2,1.7-2.4,2.6-3.6
				c0,0,0-0.1,0.1-0.1c0,0,0.1-0.1,0.1,0c0,0,0,0.1,0,0.1c0,0,0,0.1-0.1,0.1c-0.9,1.2-1.7,2.4-2.6,3.6C0.7,31,0.7,31.1,0.7,31.1z"/>
		</g>
	</g>
	<g>
		<g>
			<path class="st4" d="M3.4,27.4c1.1-0.1,2.3-0.3,3.4-0.4c0.1,0,0.1,0,0.1,0.1c0.1,1.2,0.3,2.4,0.4,3.6c0,0.1,0,0.1-0.1,0.2
				C6.2,31,5.1,31.2,4,31.3c-0.1,0-0.1,0-0.1-0.1C3.7,29.9,3.6,28.7,3.4,27.4z"/>
			<path class="st5" d="M4.1,31.1C4.1,31.1,4,31.1,4.1,31.1C4,31.1,4,31,4,31c0,0,0-0.1,0.1-0.1c0.9-1.2,1.7-2.4,2.6-3.6
				c0,0,0-0.1,0.1-0.1c0,0,0.1-0.1,0.1,0c0,0,0,0.1,0,0.1c0,0,0,0.1-0.1,0.1C5.9,28.6,5,29.8,4.2,31C4.2,31,4.1,31.1,4.1,31.1z"/>
		</g>
	</g>
	<g>
		<g>
			<path class="st4" d="M6.8,27.4c1.1-0.1,2.3-0.3,3.4-0.4c0.1,0,0.1,0,0.1,0.1c0.1,1.2,0.3,2.4,0.4,3.6c0,0.1,0,0.1-0.1,0.2
				c-1.1,0.1-2.2,0.3-3.3,0.4c-0.1,0-0.1,0-0.1-0.1C7.1,29.9,7,28.7,6.8,27.4z"/>
			<path class="st5" d="M7.5,31.1C7.5,31.1,7.4,31.1,7.5,31.1c-0.1-0.1-0.1-0.1-0.1-0.1c0,0,0-0.1,0.1-0.1c0.9-1.2,1.7-2.4,2.6-3.6
				c0,0,0-0.1,0.1-0.1c0,0,0.1-0.1,0.1,0c0,0,0,0.1,0,0.1c0,0,0,0.1-0.1,0.1c-0.9,1.2-1.7,2.4-2.6,3.6C7.6,31.1,7.5,31.1,7.5,31.1z"
				/>
		</g>
	</g>
	<g>
		<g>
			<path class="st4" d="M28,27.4c1.1-0.1,2.3-0.3,3.4-0.4c0.1,0,0.1,0,0.1,0.1c0.1,1.2,0.3,2.4,0.4,3.6c0,0.1,0,0.1-0.1,0.2
				c-1.1,0.1-2.2,0.3-3.3,0.4c-0.1,0-0.1,0-0.1-0.1C28.3,29.9,28.2,28.7,28,27.4z"/>
			<path class="st5" d="M28.7,31.2C28.7,31.1,28.6,31.1,28.7,31.2c-0.1-0.1-0.1-0.1-0.1-0.1c0,0,0-0.1,0.1-0.1
				c0.9-1.2,1.7-2.4,2.6-3.6c0,0,0-0.1,0.1-0.1c0,0,0.1-0.1,0.1,0c0,0,0,0.1,0,0.1c0,0,0,0.1-0.1,0.1c-0.9,1.2-1.7,2.4-2.6,3.6
				C28.8,31.1,28.7,31.1,28.7,31.2z"/>
		</g>
	</g>
	<g>
		<g>
			<path class="st4" d="M21,27.4c1.1-0.1,2.3-0.3,3.4-0.4c0.1,0,0.1,0,0.1,0.1c0.1,1.2,0.3,2.4,0.4,3.6c0,0.1,0,0.1-0.1,0.2
				c-1.1,0.1-2.2,0.3-3.3,0.4c-0.1,0-0.1,0-0.1-0.1C21.3,29.9,21.2,28.7,21,27.4z"/>
			<path class="st5" d="M21.7,31.1C21.7,31.1,21.7,31.1,21.7,31.1c-0.1-0.1-0.1-0.1-0.1-0.1c0,0,0-0.1,0.1-0.1
				c0.9-1.2,1.7-2.4,2.6-3.6c0,0,0-0.1,0.1-0.1c0,0,0.1-0.1,0.1,0c0,0,0,0.1,0,0.1c0,0,0,0.1-0.1,0.1c-0.9,1.2-1.7,2.4-2.6,3.6
				C21.8,31,21.7,31.1,21.7,31.1z"/>
		</g>
	</g>
	<g>
		<g>
			<path class="st4" d="M10.6,27.4c1.1-0.1,2.3-0.3,3.4-0.4c0.1,0,0.1,0,0.1,0.1c0.1,1.2,0.3,2.4,0.4,3.6c0,0.1,0,0.1-0.1,0.2
				c-1.1,0.1-2.2,0.3-3.3,0.4c-0.1,0-0.1,0-0.1-0.1C10.8,29.9,10.7,28.7,10.6,27.4z"/>
			<path class="st5" d="M11.2,31.2C11.2,31.1,11.2,31.1,11.2,31.2c-0.1-0.1-0.1-0.1-0.1-0.1c0,0,0-0.1,0.1-0.1
				c0.9-1.2,1.7-2.4,2.6-3.6c0,0,0-0.1,0.1-0.1c0,0,0.1-0.1,0.1,0c0,0,0,0.1,0,0.1c0,0,0,0.1-0.1,0.1c-0.9,1.2-1.7,2.4-2.6,3.6
				C11.3,31.1,11.2,31.1,11.2,31.2z"/>
		</g>
	</g>
	<g>
		<g>
			<path class="st4" d="M14,27.6c1.1-0.1,2.3-0.3,3.4-0.4c0.1,0,0.1,0,0.1,0.1c0.1,1.2,0.3,2.4,0.4,3.6c0,0.1,0,0.1-0.1,0.2
				c-1.1,0.1-2.2,0.3-3.3,0.4c-0.1,0-0.1,0-0.1-0.1C14.3,30.1,14.1,28.9,14,27.6z"/>
			<path class="st5" d="M14.6,31.3C14.6,31.3,14.6,31.3,14.6,31.3c-0.1-0.1-0.1-0.1-0.1-0.1c0,0,0-0.1,0.1-0.1
				c0.9-1.2,1.7-2.4,2.6-3.6c0,0,0-0.1,0.1-0.1c0,0,0.1-0.1,0.1,0c0,0,0,0.1,0,0.1c0,0,0,0.1-0.1,0.1c-0.9,1.2-1.7,2.4-2.6,3.6
				C14.7,31.2,14.7,31.3,14.6,31.3z"/>
		</g>
	</g>
	<g>
		<g>
			<path class="st4" d="M17.4,27.6c1.1-0.1,2.3-0.3,3.4-0.4c0.1,0,0.1,0,0.1,0.1c0.1,1.2,0.3,2.4,0.4,3.6c0,0.1,0,0.1-0.1,0.2
				c-1.1,0.1-2.2,0.3-3.3,0.4c-0.1,0-0.1,0-0.1-0.1C17.7,30.1,17.5,28.9,17.4,27.6z"/>
			<path class="st5" d="M18,31.3C18,31.3,18,31.3,18,31.3c-0.1-0.1-0.1-0.1-0.1-0.1c0,0,0-0.1,0.1-0.1c0.9-1.2,1.7-2.4,2.6-3.6
				c0,0,0-0.1,0.1-0.1c0,0,0.1-0.1,0.1,0c0,0,0,0.1,0,0.1c0,0,0,0.1-0.1,0.1c-0.9,1.2-1.7,2.4-2.6,3.6C18.1,31.2,18.1,31.3,18,31.3z
				"/>
		</g>
	</g>
	<g>
		<g>
			<path class="st4" d="M24.5,27.6c1.1-0.1,2.3-0.3,3.4-0.4c0.1,0,0.1,0,0.1,0.1c0.1,1.2,0.3,2.4,0.4,3.6c0,0.1,0,0.1-0.1,0.2
				c-1.1,0.1-2.2,0.3-3.3,0.4c-0.1,0-0.1,0-0.1-0.1C24.7,30.1,24.6,28.9,24.5,27.6z"/>
			<path class="st5" d="M25.1,31.3C25.1,31.3,25.1,31.3,25.1,31.3C25,31.3,25,31.2,25,31.2c0,0,0-0.1,0.1-0.1
				c0.9-1.2,1.7-2.4,2.6-3.6c0,0,0-0.1,0.1-0.1c0,0,0.1-0.1,0.1,0c0,0,0,0.1,0,0.1c0,0,0,0.1-0.1,0.1c-0.9,1.2-1.7,2.4-2.6,3.6
				C25.2,31.2,25.2,31.3,25.1,31.3z"/>
		</g>
	</g>
</g>
</svg>
