<!DOCTYPE svg PUBLIC "-//W3C//DTD SVG 1.1//EN" "http://www.w3.org/Graphics/SVG/1.1/DTD/svg11.dtd">
<!-- Uploaded to: SVG Repo, www.svgrepo.com, Transformed by: SVG Repo Mixer Tools -->
<svg height="800px" width="800px" version="1.1" id="_x32_" xmlns="http://www.w3.org/2000/svg" xmlns:xlink="http://www.w3.org/1999/xlink" viewBox="0 0 512 512" xml:space="preserve" fill="#000000" transform="rotate(90)">
<g id="SVGRepo_bgCarrier" stroke-width="0"/>
<g id="SVGRepo_tracerCarrier" stroke-linecap="round" stroke-linejoin="round"/>
<g id="SVGRepo_iconCarrier"> <style type="text/css"> .st0{fill:#000000;} </style> <g> <path class="st0" d="M446.53,4.85c-13.186-10.668-33.202-3.163-53.148,16.868c-18.109,17.776-112.788,112.51-161.468,170.404 c-34.295,36.87-60.292,72.024-64.249,96.424c-2.504,15.428,0.893,28.152,6.873,32.983l19.257,15.577 c5.98,4.837,19.138,5.49,33.7-0.184c23.032-8.98,51.957-41.757,80.833-83.01c46.417-59.717,119.235-172.135,132.825-193.564 C456.574,36.656,459.716,15.512,446.53,4.85z"/> <path class="st0" d="M149.315,322.195c-23.57-4-48.545,4.49-64.647,24.4C46.061,394.333,50.338,474.272,83.811,512 c0,0,3.099-4.831,14.115-13.98c30.543-25.408,67.441-33.813,93.04-65.47c16.101-19.917,19.166-46.119,10.328-68.32L149.315,322.195 z"/> </g> </g>
</svg>