<?xml version="1.0" encoding="utf-8"?><!-- Uploaded to: SVG Repo, www.svgrepo.com, Generator: SVG Repo Mixer Tools -->
<svg width="800px" height="800px" viewBox="0 0 24 24" fill="none" xmlns="http://www.w3.org/2000/svg">
<path fill-rule="evenodd" clip-rule="evenodd" d="M11.5144 1.12584C11.8164 0.958052 12.1836 0.958052 12.4856 1.12584L21.4845 6.12522C21.4921 6.12942 21.4996 6.13372 21.5071 6.13813C21.8125 6.31781 22 6.64568 22 7V17C22 17.3632 21.8031 17.6978 21.4856 17.8742L12.4856 22.8742C12.1791 23.0445 11.8059 23.0416 11.5022 22.8673L2.51436 17.874C2.19689 17.6977 2 17.3631 2 16.9999V7C2 6.64568 2.18749 6.3177 2.49287 6.13802L2.5073 6.13784L2.51436 6.12584L11.5144 1.12584ZM12.0001 10.856L5.05923 6.99995L12 3.14396L18.9409 7L12.0001 10.856ZM4 8.69951V16.4115L11 20.3004V12.5884L4 8.69951ZM13 12.5884V20.3005L20 16.4116V8.69951L13 12.5884Z" fill="#0F0F0F"/>
</svg>