<?xml version="1.0" encoding="UTF-8" standalone="no" ?>
<!DOCTYPE svg PUBLIC "-//W3C//DTD SVG 1.1//EN" "http://www.w3.org/Graphics/SVG/1.1/DTD/svg11.dtd">
<svg xmlns="http://www.w3.org/2000/svg" xmlns:xlink="http://www.w3.org/1999/xlink" version="1.1" width="60" height="60" viewBox="0 0 60 60" xml:space="preserve">
<desc>Created with Fabric.js 5.2.4</desc>
<defs>
</defs>
<g transform="matrix(1 0 0 1 30 30)" id="2b1bf059-362a-4858-9a48-b8762cdf1547"  >
<rect style="stroke: none; stroke-width: 1; stroke-dasharray: none; stroke-linecap: butt; stroke-dashoffset: 0; stroke-linejoin: miter; stroke-miterlimit: 4; fill: rgb(255,255,255); fill-rule: nonzero; opacity: 1; visibility: hidden;" vector-effect="non-scaling-stroke"  x="-30" y="-30" rx="0" ry="0" width="60" height="60" />
</g>
<g transform="matrix(Infinity NaN NaN Infinity 0 0)" id="043eb0de-b811-491d-8f2a-3745cae24863"  >
</g>
<g transform="matrix(0.06 0 0 0.06 92.33 92.33)" id="3e299c2d-464d-4e27-8d9e-f4c1768f6f0f"  >
<path style="stroke: rgb(0,0,0); stroke-width: 0; stroke-dasharray: none; stroke-linecap: butt; stroke-dashoffset: 0; stroke-linejoin: miter; stroke-miterlimit: 4; fill: rgb(0,0,0); fill-rule: nonzero; opacity: 1;" vector-effect="non-scaling-stroke"  transform=" translate(-8, -8)" d="M 0.923 0.02 C 0.6697517599185503 -0.04014321812234456 0.40342859902209505 0.035320251411059475 0.21937442521657724 0.21937442521657732 C 0.03532025141105943 0.4034285990220952 -0.04014321812234467 0.6697517599185503 0.020000000000000018 0.923 L 2.496 11.356 C 2.564084507713283 11.642681606356625 2.7937274558474736 11.862935404992996 3.083 11.919 L 7.328 12.741 C 7.184860003395947 13.029607650671835 7.242018168543204 13.37738690903261 7.470000000000001 13.605 L 9.645 15.780000000000001 C 9.937817546773957 16.072453378057517 10.412182453226043 16.072453378057517 10.705 15.780000000000001 L 15.780000000000001 10.705000000000002 C 16.072453378057517 10.412182453226045 16.072453378057517 9.937817546773958 15.780000000000001 9.645000000000001 L 13.605 7.47 C 13.37738690903261 7.242018168543203 13.029607650671835 7.184860003395945 12.741 7.327999999999999 L 11.919 3.0829999999999993 C 11.862935404992996 2.7937274558474727 11.642681606356625 2.5640845077132823 11.356 2.4959999999999996 L 0.923 0.02 z M 11.452 8.562 L 10.539 3.8439999999999994 L 3.15 2.09 L 6.23 5.17 C 7.21882489947362 4.697477642638577 8.404259870749389 5.006126873374991 9.037091032273713 5.900876436677027 C 9.669922193798037 6.795625999979063 9.56604306556445 8.016170774034975 8.791106919799716 8.791106919799713 C 8.01617077403498 9.56604306556445 6.79562599997907 9.669922193798037 5.900876436677032 9.037091032273715 C 5.006126873374994 8.404259870749394 4.697477642638577 7.218824899473624 5.169999999999998 6.230000000000004 L 2.09 3.1500000000000004 L 3.843 10.538 L 8.561 11.451 L 11.451 8.561 z M 9.06 13.075 L 13.074000000000002 9.061 L 14.188000000000002 10.175 L 10.174000000000003 14.189 L 9.060000000000002 13.075 z M 6.45 7.201 C 6.45 6.786786437626905 6.785786437626905 6.451 7.2 6.451 C 7.614213562373095 6.451 7.95 6.786786437626905 7.95 7.201 C 7.95 7.6152135623730945 7.614213562373095 7.951 7.2 7.951 C 6.785786437626905 7.951 6.45 7.6152135623730945 6.45 7.201 z" stroke-linecap="round" />
</g>
<g transform="matrix(0 0.12 -0.12 0 30 30)" id="6c4ded82-214a-4b26-9c09-65c19e550753"  >
<path style="stroke: rgb(0,0,0); stroke-width: 0; stroke-dasharray: none; stroke-linecap: butt; stroke-dashoffset: 0; stroke-linejoin: miter; stroke-miterlimit: 4; fill: rgb(0,0,0); fill-rule: nonzero; opacity: 1;" vector-effect="non-scaling-stroke"  transform=" translate(-215.07, -215.07)" d="M 226.623 94.279 L 335.865 203.52100000000002 L 129.928 409.398 L 20.686 300.217 L 226.623 94.279 z M 54.591 375.493 L 0 320.903 L 1.408 418.82300000000004 C 1.47 423.59600000000006 6.5489999999999995 428.67600000000004 11.322999999999999 428.737 L 109.243 430.144 L 108.448 429.349 L 54.591 375.493 z M 247.371 73.593 L 356.55100000000004 182.774 L 370.87300000000005 168.515 L 373.13700000000006 166.189 L 263.955 57.008 L 247.371 73.593 z M 426.564 95.503 L 334.643 3.581 C 329.86999999999995 -1.1919999999999997 322.09599999999995 -1.1919999999999997 317.323 3.581 L 281.76599999999996 39.138000000000005 L 390.94599999999997 148.38 L 426.56499999999994 112.823 C 431.338 108.049 431.338 100.276 426.564 95.503 z" stroke-linecap="round" />
</g>
</svg>