<?xml version="1.0" encoding="utf-8"?>
<!-- Generator: Adobe Illustrator 25.2.0, SVG Export Plug-In . SVG Version: 6.00 Build 0)  -->
<svg version="1.1" id="Layer_1" xmlns="http://www.w3.org/2000/svg" xmlns:xlink="http://www.w3.org/1999/xlink" x="0px" y="0px"
	 viewBox="0 0 32 32" style="enable-background:new 0 0 32 32;" xml:space="preserve">
<style type="text/css">
	.st0{display:none;fill:#FEFEFE;stroke:#000000;stroke-width:0.4114;stroke-miterlimit:10;}
	.st1{fill:#010101;stroke:#000000;stroke-width:0.4114;stroke-miterlimit:10;}
	.st2{fill:#FFFFFF;stroke:#000000;stroke-width:0.4114;stroke-miterlimit:10;}
</style>
<g>
	<g>
		<path class="st0" d="M16,32c-5,0-10,0-15,0c-0.7,0-1-0.1-1-1C0,21,0,10.9,0,0.9C0,0.1,0.2,0,0.9,0C11,0,21,0,31.1,0
			C31.8,0,32,0.1,32,0.9c0,10.1,0,20.2,0,30.3c0,0.7-0.2,0.8-0.8,0.8C26.1,32,21.1,32,16,32z"/>
		<path class="st1" d="M5.5,7.7c1.6,0,3,0,4.3,0c0.5,0,1.1,0,1.1,0.6C10.8,9,10.3,9,9.8,9C7.9,9,5.9,8.9,4,9C3.4,9,3.2,8.8,3.2,8.2
			c0-2,0-3.9,0-5.9c0-0.5,0.1-0.9,0.6-0.9s0.6,0.5,0.6,0.9c0,1.4,0,2.8,0,4.6c2.6-3,5.6-4.7,9.3-5.4C21.7,0.1,29.1,5.7,30.5,14
			c1.3,7.4-4.3,15.2-11.8,16.4c-8.6,1.4-16.1-4-17.3-12.7c0-0.1-0.1-0.2,0-0.3c0.1-0.7-0.6-1.9,0.6-2c1-0.1,0.6,1.2,0.7,1.8
			c0.8,7.3,7.4,12.8,14.7,12.1c7.3-0.7,12.7-7.2,12.1-14.5C28.8,7.6,22.3,2,14.9,2.6C11.2,2.9,8.1,4.5,5.5,7.7z"/>
	</g>
</g>
<circle class="st2" cx="16.4" cy="16.3" r="0.6"/>
</svg>
